<svg preserveAspectRatio="none" width="100%" height="100%" overflow="visible" style="display: block;" viewBox="0 0 867 867" fill="none" xmlns="http://www.w3.org/2000/svg">
<g id="Group 4">
<circle id="Ellipse 5" cx="433.5" cy="433.5" r="433.5" fill="var(--fill-0, #343A3A)"/>
<g id="Group 2">
<circle id="Ellipse 3" cx="433.5" cy="433.5" r="181.601" fill="var(--fill-0, #4B5250)"/>
<circle id="Ellipse 4" cx="433.5" cy="433.5" r="167.932" fill="var(--fill-0, #FF6F21)"/>
</g>
<circle id="Ellipse 6" cx="433.012" cy="433.012" r="407.127" stroke="var(--stroke-0, #424848)"/>
<circle id="Ellipse 7" cx="433.5" cy="433.5" r="380.277" stroke="var(--stroke-0, #424848)"/>
<circle id="Ellipse 9" cx="433.5" cy="436.429" r="324.625" stroke="var(--stroke-0, #424848)"/>
<circle id="Ellipse 11" cx="433.5" cy="435.453" r="251.399" stroke="var(--stroke-0, #424848)"/>
<circle id="Ellipse 14" cx="433.012" cy="433.012" r="208.927" stroke="var(--stroke-0, #424848)"/>
<circle id="Ellipse 8" cx="433.5" cy="433.5" r="352.939" stroke="var(--stroke-0, #424848)"/>
<circle id="Ellipse 12" cx="433.5" cy="433.5" r="272.878" stroke="var(--stroke-0, #424848)"/>
<circle id="Ellipse 10" cx="433.5" cy="433.5" r="297.287" stroke="var(--stroke-0, #424848)"/>
<path id="Ellipse 13" d="M433.5 203.581C562.099 203.581 666.348 307.613 666.348 435.941C666.348 564.268 562.099 668.301 433.5 668.301C304.9 668.301 200.652 564.268 200.652 435.941C200.652 307.613 304.901 203.581 433.5 203.581Z" stroke="var(--stroke-0, #424848)"/>
<path id="Ellipse 15" d="M432.524 240.682C539.555 240.682 626.318 327.012 626.318 433.5C626.318 539.988 539.555 626.317 432.524 626.317C325.492 626.317 238.73 539.988 238.73 433.5C238.73 327.012 325.492 240.682 432.524 240.682Z" stroke="var(--stroke-0, #424848)"/>
<circle id="Ellipse 16" cx="433.012" cy="433.012" r="80.7753" stroke="var(--stroke-0, #0B0B0B)" stroke-width="1.5"/>
<circle id="Ellipse 17" cx="433" cy="434" r="18" fill="var(--fill-0, #343A3A)"/>
</g>
</svg>
